<svg viewBox="0 1 288 288" width="288" height="288">
  <defs>
    <style>.cls-1{fill:#b9ced9;}.cls-2{fill:#a1bdcc;}.cls-3{fill:#8aadbf;}.cls-4{fill:#789eb2;}.cls-5{fill:none;}.cls-6{fill:#f80000;}.cls-7{fill:#fff;}</style>
  </defs>
  <path class="cls-1" d="M 100.5 67.1 C 71.5 67.1 48 63.048 48 58.049 L 48 155.81 C 48 160.81 71.5 164.862 100.5 164.862 C 129.5 164.862 153 160.809 153 155.81 L 153 58.052 C 153 63.051 129.5 67.1 100.5 67.1 Z"></path>
  <path class="cls-2" d="M 48 58.052 L 48 155.81 C 48 160.81 71.5 164.862 100.5 164.862 L 100.5 67.1 C 71.505 67.1 48 63.051 48 58.052 Z"></path>
  <path class="cls-2" d="M 145.759 62.642 L 145.759 160.4 C 150.359 159.055 153 157.486 153 155.811 L 153 58.052 C 153 59.727 150.36 61.3 145.759 62.642 Z"></path>
  <ellipse class="cls-3" cx="100.5" cy="58.052" rx="52.5" ry="9.052"></ellipse>
  <path class="cls-4" d="M 48 119.6 C 48 124.6 71.5 128.652 100.5 128.652 C 129.5 128.652 153 124.6 153 119.6 L 153 126.842 C 153 131.842 129.5 135.894 100.5 135.894 C 71.5 135.894 48 131.844 48 126.845 L 48 119.6 Z"></path>
  <path class="cls-4" d="M 153 87.017 C 153 92.017 129.5 96.069 100.5 96.069 C 71.5 96.069 48 92.016 48 87.017 L 48 94.259 C 48 99.259 71.5 103.31 100.5 103.31 C 129.5 103.31 153 99.258 153 94.259 L 153 87.017 Z"></path>
  <rect class="cls-5" width="288" height="288" y="1"></rect>
  <g id="db-logobox" transform="matrix(1, 0, 0, 1, 0, 1)">
    <rect class="cls-6" x="114" y="114" width="126" height="126" rx="12" ry="12"></rect>
  </g>
  <path class="cls-7" d="M 141.289 153.984 L 152.727 153.984 L 159.575 169.745 L 166.292 153.984 L 176.731 153.984 L 164.763 177.725 L 176.932 202 L 165.561 202 L 158.179 185.442 L 150.8 202 L 140.424 202 L 152.859 176.864 L 141.289 153.984 Z"></path>
  <path class="cls-7" d="M 184.713 202 L 184.713 153.984 L 210.913 153.984 L 210.913 161.366 L 194.754 161.366 L 194.754 173.2 L 209.654 173.2 L 209.654 180.582 L 194.754 180.582 L 194.754 194.613 L 211.445 194.613 L 211.445 202 L 184.713 202 Z"></path>
</svg>
