<svg id="Icons" xmlns="http://www.w3.org/2000/svg" viewBox="0 0 288 288"><defs><style>.cls-1{fill:#b9ced9;}.cls-2{fill:#a1bdcc;}.cls-3{fill:#8aadbf;}.cls-4{fill:#789eb2;}.cls-5{fill:none;}.cls-6{fill:#f80000;}.cls-7{fill:#fff;}</style></defs><title>Oracle XE Docker Desktop Extension</title><path class="cls-1" d="M100.5,66.1c-29,0-52.5-4.052-52.5-9.051V154.81c0,5,23.5,9.052,52.5,9.052s52.5-4.053,52.5-9.052V57.052C153,62.051,129.5,66.1,100.5,66.1Z"/><path class="cls-2" d="M48,57.052V154.81c0,5,23.5,9.052,52.5,9.052V66.1C71.505,66.1,48,62.051,48,57.052Z"/><path class="cls-2" d="M145.759,61.642V159.4c4.6-1.345,7.241-2.914,7.241-4.589V57.052C153,58.727,150.36,60.3,145.759,61.642Z"/><ellipse class="cls-3" cx="100.5" cy="57.052" rx="52.5" ry="9.052"/><path class="cls-4" d="M48,118.6c0,5,23.5,9.052,52.5,9.052S153,123.6,153,118.6v7.242c0,5-23.5,9.052-52.5,9.052S48,130.844,48,125.845Z"/><path class="cls-4" d="M153,86.017c0,5-23.5,9.052-52.5,9.052S48,91.016,48,86.017v7.242c0,5,23.5,9.051,52.5,9.051S153,98.258,153,93.259Z"/><rect class="cls-5" width="288" height="288"/><g id="db-logobox"><rect class="cls-6" x="114" y="114" width="126" height="126" rx="12" ry="12"/></g><path class="cls-7" d="M141.289,152.984h11.438l6.848,15.761,6.717-15.761h10.439l-11.968,23.741L176.932,201H165.561l-7.382-16.558L150.8,201H140.424l12.435-25.136Z"/><path class="cls-7" d="M184.713,201V152.984h26.2v7.382H194.754V172.2h14.9v7.382h-14.9v14.031h16.691V201Z"/></svg>